# xmcd
#
# Track frame offsets:
#	150
#	15271
#	30658
#	59511
#	76568
#	93064
#	114414
#	126128
#	147286
#	159884
#	176904
#	195558
#	213918
#	231015
#	260141
#
# Disc length: 3502 seconds
#
# Revision: 896266155
# Processed by: cddbd v1.5.2PL0 Copyright (c) Steve Scherf et al.
# Submitted via: EZCDAudioConverter 8.0.7.1
#
DISCID=b90dac0f
DTITLE=Brad Paisley - Playlist: The Very Best Of Brad Paisley
DYEAR=2009
DGENRE=Country
TTITLE0=Brad Paisley - Me Neither
TTITLE1=Brad Paisley - Wrapped Around
TTITLE2=Brad Paisley and Sara Evans - New Again
TTITLE3=Brad Paisley - Sharp Dressed Man
TTITLE4=Brad Paisley - The Cigar Song
TTITLE5=Brad Paisley - He Didn't Have To Be
TTITLE6=Brad Paisley - Chicken Chet (Instrumental)
TTITLE7=Brad Paisley - Ode De Toilet (The Toilet Song)
TTITLE8=Brad Paisley - Two Feet Of Top Soil
TTITLE9=Brad Paisley - Who Needs Pictures
TTITLE10=Brad Paisley - Two People Fell In Love
TTITLE11=Brad Paisley - Keep On The Sunny Side
TTITLE12=Brad Paisley - We Danced
TTITLE13=Brad Paisley - Time Warp (Instrumental)
TTITLE14=Brad Paisley - Untitled
EXTD=
EXTT0=
EXTT1=
EXTT2=
EXTT3=
EXTT4=
EXTT5=
EXTT6=
EXTT7=
EXTT8=
EXTT9=
EXTT10=
EXTT11=
EXTT12=
EXTT13=
EXTT14=
PLAYORDER=
